<?xml version="1.0" encoding="UTF-8"?>
<svg version="1.1" xmlns="http://www.w3.org/2000/svg" width="80" height="80">
<path d="M0 0 C7.84370217 5.589615 12.90350019 13.17118982 15.4765625 22.42578125 C17.21673095 34.63502766 15.82391245 46.04685937 8.4921875 56.1640625 C2.0526605 63.87094322 -6.26203656 70.34656494 -16.5234375 71.42578125 C-22.13214074 71.68389322 -27.60586875 71.75639655 -33.1484375 70.80078125 C-37.37193758 70.33150346 -40.86419459 71.16635826 -44.97265625 72.1484375 C-47.5234375 72.42578125 -47.5234375 72.42578125 -49.79296875 71.87890625 C-52.44214212 69.65431823 -52.21801968 67.48433039 -52.5234375 64.11328125 C-53.00626238 58.82031354 -54.02871895 56.40660727 -57.5234375 52.42578125 C-58.7890625 50.109375 -58.7890625 50.109375 -59.7734375 47.86328125 C-60.10859375 47.11949219 -60.44375 46.37570313 -60.7890625 45.609375 C-61.5234375 43.42578125 -61.5234375 43.42578125 -61.5234375 39.42578125 C-62.5134375 39.09578125 -63.5034375 38.76578125 -64.5234375 38.42578125 C-65.03618361 26.44616759 -60.46552317 14.35856367 -52.5234375 5.42578125 C-38.38775176 -9.51930981 -17.02303978 -10.61963627 0 0 Z " fill="#428CBE" transform="translate(64.5234375,7.57421875)"/>
<path d="M0 0 C0.56976563 0.29261719 1.13953125 0.58523437 1.7265625 0.88671875 C3.91372885 1.95775382 6.1242037 2.88454012 8.375 3.8125 C12.60689406 5.66700382 15.58257108 7.91597878 19 11 C21.91055201 12.455276 23.78091798 12.45067148 27 12 C29.42422186 9.11490087 29.42422186 9.11490087 31 6 C34 7 34 7 35.17578125 8.9609375 C36.32890031 13.21272246 36.25059831 17.24132777 36.1875 21.625 C36.18685547 22.48351562 36.18621094 23.34203125 36.18554688 24.2265625 C36.16041565 27.80078129 36.139841 30.580477 35 34 C33.3766183 34.73655389 31.74603527 35.46050087 30.08642578 36.11132812 C26.17036204 37.77929817 22.58882904 40.07569653 18.9375 42.25 C11.10929677 46.85424066 3.19397344 51.08346783 -5 55 C-8 53 -8 53 -8.6875 50.375 C-8.790625 49.59125 -8.89375 48.8075 -9 48 C-10.98 48.495 -10.98 48.495 -13 49 C-12.42333499 45.53242222 -11.28994833 43.9533644 -8.75 41.5625 C-8.11835937 40.95535156 -7.48671875 40.34820312 -6.8359375 39.72265625 C-6.23007812 39.15417969 -5.62421875 38.58570313 -5 38 C-1.07552252 34.2624024 1.94450594 30.45229134 5 26 C4.67 25.34 4.34 24.68 4 24 C3.01 24.33 2.02 24.66 1 25 C-1.35188447 24.40206327 -3.68925595 23.74118205 -6 23 C-4.74523029 26.76430913 -3.30577382 27.05044108 0 29 C0 29.66 0 30.32 0 31 C-2.76276177 30.47731534 -5.3260876 29.89130413 -8 29 C-8.33 29.99 -8.66 30.98 -9 32 C-7.68 32.66 -6.36 33.32 -5 34 C-5 34.66 -5 35.32 -5 36 C-10.28 35.34 -15.56 34.68 -21 34 C-21 31.36 -21 28.72 -21 26 C-21.99 25.34 -22.98 24.68 -24 24 C-20.36158031 21.60347633 -17.10765806 20.31497165 -12.875 19.3125 C-11.84117188 19.06113281 -10.80734375 18.80976562 -9.7421875 18.55078125 C-7 18 -7 18 -4 18 C-4 18.66 -4 19.32 -4 20 C-2.02463255 19.65213292 -2.02463255 19.65213292 0 19 C0.33 18.34 0.66 17.68 1 17 C-0.11375 16.5875 -1.2275 16.175 -2.375 15.75 C-5.81754484 14.29540359 -5.81754484 14.29540359 -7.3125 11.875 C-7.539375 11.25625 -7.76625 10.6375 -8 10 C-8.66 9.67 -9.32 9.34 -10 9 C-9.67 8.34 -9.34 7.68 -9 7 C-8.34 6.855625 -7.68 6.71125 -7 6.5625 C-6.01 6.2840625 -6.01 6.2840625 -5 6 C-4.67 5.01 -4.34 4.02 -4 3 C-3.01 2.67 -2.02 2.34 -1 2 C-0.67 1.34 -0.34 0.68 0 0 Z " fill="#64B1E6" transform="translate(44,18)"/>
<path d="M0 0 C5.43995363 3.8766447 9.39193969 8.48637028 12.4765625 14.42578125 C12.4765625 15.08578125 12.4765625 15.74578125 12.4765625 16.42578125 C11.8165625 16.42578125 11.1565625 16.42578125 10.4765625 16.42578125 C10.1878125 17.20953125 9.8990625 17.99328125 9.6015625 18.80078125 C8.4765625 21.42578125 8.4765625 21.42578125 6.4765625 23.42578125 C2.6220178 23.95140098 0.8192727 23.62161565 -2.5859375 21.67578125 C-4.40952169 20.27899336 -6.20739489 18.84704808 -7.9609375 17.36328125 C-10.97010423 15.08805762 -14.0399662 13.84497326 -17.5234375 12.42578125 C-18.5134375 11.76578125 -19.5034375 11.10578125 -20.5234375 10.42578125 C-21.0184375 11.91078125 -21.0184375 11.91078125 -21.5234375 13.42578125 C-22.5134375 13.42578125 -23.5034375 13.42578125 -24.5234375 13.42578125 C-24.8534375 14.74578125 -25.1834375 16.06578125 -25.5234375 17.42578125 C-26.8434375 17.42578125 -28.1634375 17.42578125 -29.5234375 17.42578125 C-31.36035007 21.20766006 -31.68181376 23.37146433 -30.5234375 27.42578125 C-31.5134375 27.09578125 -32.5034375 26.76578125 -33.5234375 26.42578125 C-33.8534375 25.76578125 -34.1834375 25.10578125 -34.5234375 24.42578125 C-35.5134375 24.09578125 -36.5034375 23.76578125 -37.5234375 23.42578125 C-37.5234375 25.07578125 -37.5234375 26.72578125 -37.5234375 28.42578125 C-39.0084375 27.93078125 -39.0084375 27.93078125 -40.5234375 27.42578125 C-40.5234375 26.43578125 -40.5234375 25.44578125 -40.5234375 24.42578125 C-45.61213434 26.58938394 -49.16467316 28.11856148 -51.5234375 33.42578125 C-56.36365911 32.95124972 -59.45546698 32.04642547 -63.5234375 29.42578125 C-60.53514648 16.54457647 -55.69975418 6.17909319 -44.5234375 -1.57421875 C-29.97834132 -9.44681206 -13.94156984 -8.69729512 0 0 Z " fill="#FAB859" transform="translate(64.5234375,7.57421875)"/>
<path d="M0 0 C0.99 0 1.98 0 3 0 C3.78375 0.804375 4.5675 1.60875 5.375 2.4375 C8.10089852 5.09849617 9.2968335 5.68258573 13 6 C12.34 7.32 11.68 8.64 11 10 C9.68 10 8.36 10 7 10 C7 9.34 7 8.68 7 8 C6.45472656 8.19335938 5.90945312 8.38671875 5.34765625 8.5859375 C0.52159126 10.25237362 -4.24063777 11.57887623 -9.25 12.5703125 C-11.01653784 12.84383855 -11.01653784 12.84383855 -12 14 C-11.01 14.66 -10.02 15.32 -9 16 C-9.33 18.64 -9.66 21.28 -10 24 C-7.03 24 -4.06 24 -1 24 C-1.33 24.66 -1.66 25.32 -2 26 C-2.66 26 -3.32 26 -4 26 C-4.23074219 26.6084375 -4.46148438 27.216875 -4.69921875 27.84375 C-6.36379174 30.60304216 -7.89052132 31.20328982 -10.8125 32.5 C-14.65055026 34.29405244 -17.8253341 36.14280069 -21 39 C-30 26.15533981 -30 26.15533981 -30 19 C-30.99 18.67 -31.98 18.34 -33 18 C-33.125 14.625 -33.125 14.625 -33 11 C-32.34 10.34 -31.68 9.68 -31 9 C-27.37 10.32 -23.74 11.64 -20 13 C-19.67 11.68 -19.34 10.36 -19 9 C-15.83419795 5.92213689 -13.39381209 4.50214995 -9 4 C-8.67 4.99 -8.34 5.98 -8 7 C-7.34 7.33 -6.68 7.66 -6 8 C-6 6.35 -6 4.7 -6 3 C-2.73045798 3.56371414 -1.17424117 4.49962266 1 7 C0.34 5.02 -0.32 3.04 -1 1 C-0.67 0.67 -0.34 0.34 0 0 Z " fill="#2D75A6" transform="translate(33,28)"/>
<path d="M0 0 C0.56976563 0.29261719 1.13953125 0.58523437 1.7265625 0.88671875 C3.91372885 1.95775382 6.1242037 2.88454012 8.375 3.8125 C11.37211743 5.12006594 13.70949256 6.42377145 16.125 8.625 C19.5045625 11.4168125 21.78170858 12.07197589 26 13 C23.4238435 15.5761565 21.54409271 16.22355155 18 16.25 C15.21910239 16.14623516 12.65713355 15.88571118 10 15 C9.896875 15.9075 9.79375 16.815 9.6875 17.75 C8.99585051 21.01961575 8.17865079 22.53717737 6 25 C5.34 24.34 4.68 23.68 4 23 C3.67 23.66 3.34 24.32 3 25 C0.03 24.34 -2.94 23.68 -6 23 C-4.74523029 26.76430913 -3.30577382 27.05044108 0 29 C0 29.66 0 30.32 0 31 C-2.76276177 30.47731534 -5.3260876 29.89130413 -8 29 C-8.33 29.99 -8.66 30.98 -9 32 C-7.68 32.66 -6.36 33.32 -5 34 C-5 34.66 -5 35.32 -5 36 C-10.28 35.34 -15.56 34.68 -21 34 C-21 31.36 -21 28.72 -21 26 C-21.99 25.34 -22.98 24.68 -24 24 C-20.36158031 21.60347633 -17.10765806 20.31497165 -12.875 19.3125 C-11.84117188 19.06113281 -10.80734375 18.80976562 -9.7421875 18.55078125 C-7 18 -7 18 -4 18 C-4 18.66 -4 19.32 -4 20 C-2.02463255 19.65213292 -2.02463255 19.65213292 0 19 C0.33 18.34 0.66 17.68 1 17 C-0.11375 16.5875 -1.2275 16.175 -2.375 15.75 C-5.81754484 14.29540359 -5.81754484 14.29540359 -7.3125 11.875 C-7.539375 11.25625 -7.76625 10.6375 -8 10 C-8.66 9.67 -9.32 9.34 -10 9 C-9.67 8.34 -9.34 7.68 -9 7 C-8.34 6.855625 -7.68 6.71125 -7 6.5625 C-6.01 6.2840625 -6.01 6.2840625 -5 6 C-4.67 5.01 -4.34 4.02 -4 3 C-3.01 2.67 -2.02 2.34 -1 2 C-0.67 1.34 -0.34 0.68 0 0 Z " fill="#4F97C7" transform="translate(44,18)"/>
<path d="M0 0 C-1.3217694 8.576481 -7.11737682 14.80221771 -13.55859375 20.2734375 C-17.41504495 23.00071979 -21.50288604 24.62523459 -26 26 C-26.62390625 26.19464844 -27.2478125 26.38929687 -27.890625 26.58984375 C-30.76083224 27.1479396 -33.51546839 27.13175614 -36.4375 27.125 C-37.54996094 27.12757812 -38.66242187 27.13015625 -39.80859375 27.1328125 C-42.66377492 27.01399223 -45.22507946 26.65353269 -48 26 C-48 25.34 -48 24.68 -48 24 C-46.41638672 23.34257813 -46.41638672 23.34257813 -44.80078125 22.671875 C-31.17688459 16.88467793 -17.73286391 10.14744719 -5.578125 1.640625 C-3 0 -3 0 0 0 Z " fill="#FC9351" transform="translate(78,52)"/>
<path d="M0 0 C0.02712066 1.43739513 0.04645067 2.87493863 0.0625 4.3125 C0.07410156 5.11300781 0.08570313 5.91351563 0.09765625 6.73828125 C0 9 0 9 -1 12 C-2.6233817 12.73655389 -4.25396473 13.46050087 -5.91357422 14.11132812 C-9.82963796 15.77929817 -13.41117096 18.07569653 -17.0625 20.25 C-24.89070323 24.85424066 -32.80602656 29.08346783 -41 33 C-44 31 -44 31 -44.6875 27.875 C-44.790625 26.92625 -44.89375 25.9775 -45 25 C-44.47905762 24.74009277 -43.95811523 24.48018555 -43.42138672 24.21240234 C-31.49856083 18.2211239 -20.09002011 11.75265533 -8.93505859 4.42138672 C-8.05543457 3.84533691 -7.17581055 3.26928711 -6.26953125 2.67578125 C-5.49198486 2.15927002 -4.71443848 1.64275879 -3.91333008 1.1105957 C-2 0 -2 0 0 0 Z " fill="#D1D4CE" transform="translate(80,40)"/>
<path d="M0 0 C0.58523437 0.19335938 1.17046875 0.38671875 1.7734375 0.5859375 C10.71791314 3.29882651 19.73432266 4.13357253 29 5 C28.67 5.66 28.34 6.32 28 7 C27.34 7 26.68 7 26 7 C25.76925781 7.6084375 25.53851562 8.216875 25.30078125 8.84375 C23.63620826 11.60304216 22.10947868 12.20328982 19.1875 13.5 C15.34944974 15.29405244 12.1746659 17.14280069 9 20 C0 7.15533981 0 7.15533981 0 0 Z " fill="#FC6F49" transform="translate(3,47)"/>
<path d="M0 0 C0.99 2.31 1.98 4.62 3 7 C-3.62355417 10.76436267 -10.25897849 13.78978057 -18 14 C-20.2734375 13.26171875 -20.2734375 13.26171875 -22 12 C-22.75 8.375 -22.75 8.375 -23 5 C-22.2265625 4.89042969 -21.453125 4.78085938 -20.65625 4.66796875 C-13.95024691 3.64712917 -6.53591905 0 0 0 Z " fill="#575B6E" transform="translate(35,66)"/>
<path d="M0 0 C3 1 3 1 4.1875 2.9375 C5.3447237 7.29934317 5.15679528 11.5139128 5 16 C3.59546357 16.89434157 2.17578131 17.76493192 0.75 18.625 C-0.43335937 19.35589844 -0.43335937 19.35589844 -1.640625 20.1015625 C-4 21 -4 21 -6.171875 20.3359375 C-8 19 -8 19 -10 16 C-10 12.5625 -10 12.5625 -9 9 C-6.125 6.875 -6.125 6.875 -3 5 C-1.13689678 2.39975951 -1.13689678 2.39975951 0 0 Z " fill="#7BC8F1" transform="translate(75,24)"/>
<path d="M0 0 C0.99 0.34933594 1.98 0.69867188 3 1.05859375 C12.78518712 4.46625782 12.78518712 4.46625782 23 6 C22.67 8.64 22.34 11.28 22 14 C14.05057353 14.53894417 7.44842026 12.75990572 0 10 C-1 9 -1 9 -1.125 5.5625 C-1 2 -1 2 0 0 Z " fill="#56596B" transform="translate(1,37)"/>
<path d="M0 0 C0 0.66 0 1.32 0 2 C-2.76276177 1.47731534 -5.3260876 0.89130413 -8 0 C-8.33 0.99 -8.66 1.98 -9 3 C-7.68 3.66 -6.36 4.32 -5 5 C-5 5.66 -5 6.32 -5 7 C-10.28 6.34 -15.56 5.68 -21 5 C-21 2.36 -21 -0.28 -21 -3 C-18.93906592 -3.223293 -16.8761161 -3.42802887 -14.8125 -3.625 C-13.66394531 -3.74101563 -12.51539063 -3.85703125 -11.33203125 -3.9765625 C-6.55861184 -4.01013872 -3.91804937 -2.61203291 0 0 Z " fill="#CDD1CD" transform="translate(44,47)"/>
<path d="M0 0 C2.85965351 1.3659952 4.68290093 3.48174134 6.75 5.8359375 C6.75 6.4959375 6.75 7.1559375 6.75 7.8359375 C3.23821216 8.91780857 -0.02552566 8.96940449 -3.6875 8.9609375 C-4.79996094 8.96351562 -5.91242187 8.96609375 -7.05859375 8.96875 C-9.91377492 8.84992973 -12.47507946 8.48947019 -15.25 7.8359375 C-15.25 7.1759375 -15.25 6.5159375 -15.25 5.8359375 C-13.1737343 4.80080503 -11.08868521 3.78327539 -9 2.7734375 C-7.83984375 2.20496094 -6.6796875 1.63648437 -5.484375 1.05078125 C-2.25 -0.1640625 -2.25 -0.1640625 0 0 Z " fill="#FB704A" transform="translate(45.25,70.1640625)"/>
<path d="M0 0 C3.35620271 1.38877354 5.07298728 2.91677965 7 6 C7 6.66 7 7.32 7 8 C8.65 8.33 10.3 8.66 12 9 C12 9.66 12 10.32 12 11 C9.09458095 11.96847302 7.03362546 12.19582812 4 12.25 C2.700625 12.28867187 2.700625 12.28867187 1.375 12.328125 C-1 12 -1 12 -2.8125 10.609375 C-4 9 -4 9 -4 7 C-4.66 6.67 -5.32 6.34 -6 6 C-5.67 5.34 -5.34 4.68 -5 4 C-4.34 3.855625 -3.68 3.71125 -3 3.5625 C-2.01 3.2840625 -2.01 3.2840625 -1 3 C-0.67 2.01 -0.34 1.02 0 0 Z " fill="#D1D7D1" transform="translate(40,21)"/>
<path d="M0 0 C-0.7115625 0.7734375 -0.7115625 0.7734375 -1.4375 1.5625 C-3.41870665 4.65318237 -3.5243131 7.39837058 -4 11 C-6.40545638 12.20272819 -7.94996953 12.10071472 -10.625 12.0625 C-11.85089844 12.04896484 -11.85089844 12.04896484 -13.1015625 12.03515625 C-14.04128906 12.01775391 -14.04128906 12.01775391 -15 12 C-14.91802415 9.21282111 -14.43764605 7.48247233 -12.55078125 5.40234375 C-4.10617647 -2.05308824 -4.10617647 -2.05308824 0 0 Z " fill="#DDDFD6" transform="translate(27,59)"/>
<path d="M0 0 C0.886875 -0.01417969 1.77375 -0.02835938 2.6875 -0.04296875 C5 0.1875 5 0.1875 7 2.1875 C5.7934375 3.0846875 5.7934375 3.0846875 4.5625 4 C1.77672016 5.99697276 1.77672016 5.99697276 1 9.1875 C-3.77576339 8.7192879 -7.04476345 7.94418002 -11 5.1875 C-7.20940502 1.27055185 -5.46083455 0.0396863 0 0 Z " fill="#D1D2CA" transform="translate(12,31.8125)"/>
<path d="M0 0 C0.33 0.66 0.66 1.32 1 2 C2.32 1.67 3.64 1.34 5 1 C4.46537463 5.54431563 2.95036951 8.50614137 0 12 C-3.75 13.375 -3.75 13.375 -7 14 C-7.57341412 8.3805416 -6.5593358 5.63595845 -3.2890625 1.28515625 C-2 0 -2 0 0 0 Z " fill="#2D76A7" transform="translate(30,56)"/>
<path d="M0 0 C0 0.66 0 1.32 0 2 C-0.66 2 -1.32 2 -2 2 C-2 2.66 -2 3.32 -2 4 C-1.34 4.33 -0.68 4.66 0 5 C-0.66 5 -1.32 5 -2 5 C-2 5.66 -2 6.32 -2 7 C-4.69664208 8.34832104 -6.86587521 8.16910682 -9.875 8.1875 C-10.92429687 8.20167969 -11.97359375 8.21585938 -13.0546875 8.23046875 C-15.93547071 8.00504937 -17.56240208 7.48964317 -20 6 C-16.36158031 3.60347633 -13.10765806 2.31497165 -8.875 1.3125 C-7.32425781 0.93544922 -7.32425781 0.93544922 -5.7421875 0.55078125 C-3 0 -3 0 0 0 Z " fill="#4C94C6" transform="translate(40,36)"/>
<path d="M0 0 C0.84304687 0.42925781 0.84304687 0.42925781 1.703125 0.8671875 C4.02870923 2.01415931 6.37770201 3.07839794 8.75 4.125 C9.54921875 4.47820313 10.3484375 4.83140625 11.171875 5.1953125 C11.77515625 5.46085937 12.3784375 5.72640625 13 6 C11.125 9.875 11.125 9.875 10 11 C6.75 11.5625 6.75 11.5625 3 11 C0.85556305 8.56821914 -0.59103759 5.90882563 -2 3 C-1.34 2.01 -0.68 1.02 0 0 Z " fill="#3179A9" transform="translate(44,18)"/>
<path d="M0 0 C0.02712066 1.43739513 0.04645067 2.87493863 0.0625 4.3125 C0.07410156 5.11300781 0.08570312 5.91351563 0.09765625 6.73828125 C0 9 0 9 -1 12 C-3.875 12.125 -3.875 12.125 -7 12 C-7.66 11.34 -8.32 10.68 -9 10 C-9 7.125 -9 7.125 -8 4 C-3.05263158 0 -3.05263158 0 0 0 Z " fill="#DEE2D8" transform="translate(80,40)"/>
<path d="M0 0 C0.33 0 0.66 0 1 0 C1.3125 2.25 1.3125 2.25 1 5 C-1.5 7.3125 -1.5 7.3125 -4 9 C-4.33 8.34 -4.66 7.68 -5 7 C-6.32 7 -7.64 7 -9 7 C-9.33 5.68 -9.66 4.36 -10 3 C-7 1 -7 1 -5 1.3125 C-4.34 1.539375 -3.68 1.76625 -3 2 C-2.01 2.33 -1.02 2.66 0 3 C0 2.01 0 1.02 0 0 Z " fill="#578DB0" transform="translate(39,51)"/>
<path d="M0 0 C4.36416918 0.23590104 6.90918403 1.99749305 10 5 C10 5.99 10 6.98 10 8 C1.64989059 6.66958425 1.64989059 6.66958425 -1.0625 3.875 C-1.371875 3.25625 -1.68125 2.6375 -2 2 C-1.34 1.34 -0.68 0.68 0 0 Z " fill="#D3D2C5" transform="translate(47,15)"/>
<path d="M0 0 C3.0831351 1.19899698 6.06279492 2.47700477 9 4 C7.02 6.97 7.02 6.97 5 10 C4.566875 9.38125 4.13375 8.7625 3.6875 8.125 C2.00259517 5.7802755 2.00259517 5.7802755 -1 4 C-0.67 2.68 -0.34 1.36 0 0 Z " fill="#337CAC" transform="translate(36,46)"/>
<path d="M0 0 C2.875 -0.125 2.875 -0.125 6 0 C6.66 0.66 7.32 1.32 8 2 C6.7934375 2.8971875 6.7934375 2.8971875 5.5625 3.8125 C2.77672016 5.80947276 2.77672016 5.80947276 2 9 C0.68 8.67 -0.64 8.34 -2 8 C-1.34 7.67 -0.68 7.34 0 7 C0 4.69 0 2.38 0 0 Z " fill="#BDC1C1" transform="translate(11,32)"/>
<path d="M0 0 C0.66 0.33 1.32 0.66 2 1 C1.2884375 1.7734375 1.2884375 1.7734375 0.5625 2.5625 C-1.42809407 5.66782675 -1.65060818 8.36632504 -2 12 C-2.268125 11.443125 -2.53625 10.88625 -2.8125 10.3125 C-4.10122647 7.80287477 -5.52926478 5.40665764 -7 3 C-4.69631264 1.93347808 -2.35981813 0.93578995 0 0 Z " fill="#CFCBC5" transform="translate(25,58)"/>
<path d="M0 0 C6.52307692 0.61538462 6.52307692 0.61538462 8.9375 2.5625 C9.288125 3.036875 9.63875 3.51125 10 4 C5.82412255 5.39195915 3.86525224 3.82323219 0 2 C0 1.34 0 0.68 0 0 Z " fill="#C6D0CF" transform="translate(38,38)"/>
<path d="M0 0 C1.9375 0.8125 1.9375 0.8125 4 2 C4.33 2.99 4.66 3.98 5 5 C3.35 5.33 1.7 5.66 0 6 C-0.66 5.01 -1.32 4.02 -2 3 C-1.34 2.01 -0.68 1.02 0 0 Z " fill="#2B6F9A" transform="translate(44,18)"/>
<path d="M0 0 C1.32 0.66 2.64 1.32 4 2 C4 2.99 4 3.98 4 5 C3.01 5.33 2.02 5.66 1 6 C0.34 4.35 -0.32 2.7 -1 1 C-0.67 0.67 -0.34 0.34 0 0 Z " fill="#3176A4" transform="translate(39,24)"/>
<path d="M0 0 C0.66 0 1.32 0 2 0 C3.4606285 2.64738916 4 3.89448334 4 7 C1 6 1 6 -0.25 4.0625 C-0.4975 3.381875 -0.745 2.70125 -1 2 C-0.67 1.34 -0.34 0.68 0 0 Z " fill="#C8CCC4" transform="translate(30,28)"/>
</svg>
